<?xml version="1.0" encoding="UTF-8" standalone="no"?>
<svg
   fill="#000000"
   viewBox="0 0 50 50"
   width="512px"
   height="512px"
   version="1.1"
   id="svg4"
   sodipodi:docname="insta.svg"
   inkscape:version="1.1 (c68e22c387, 2021-05-23)"
   xmlns:inkscape="http://www.inkscape.org/namespaces/inkscape"
   xmlns:sodipodi="http://sodipodi.sourceforge.net/DTD/sodipodi-0.dtd"
   xmlns="http://www.w3.org/2000/svg"
   xmlns:svg="http://www.w3.org/2000/svg">
  <defs
     id="defs8" />
  <sodipodi:namedview
     id="namedview6"
     pagecolor="#ffffff"
     bordercolor="#666666"
     borderopacity="1.0"
     inkscape:pageshadow="2"
     inkscape:pageopacity="0.0"
     inkscape:pagecheckerboard="0"
     showgrid="false"
     inkscape:zoom="1.2042912"
     inkscape:cx="209.66689"
     inkscape:cy="242.88145"
     inkscape:window-width="1920"
     inkscape:window-height="1057"
     inkscape:window-x="-8"
     inkscape:window-y="-8"
     inkscape:window-maximized="1"
     inkscape:current-layer="svg4" />
  <path
     d="M 16,3 C 8.8324839,3 3,8.8324839 3,16 v 18 c 0,7.167516 5.8324839,13 13,13 h 18 c 7.167516,0 13,-5.832484 13,-13 V 16 C 47,8.8324839 41.167516,3 34,3 Z m 0,2.5859375 h 18 c 6.086484,0 10.414062,4.3275786 10.414062,10.4140625 v 18 c 0,6.086484 -4.913516,10.414062 -11,10.414062 H 16.585937 C 10.499454,44.414062 5.5859375,40.086484 5.5859375,34 V 16 C 5.5859375,9.9135161 9.9135161,5.5859375 16,5.5859375 Z M 37,11 c -1.104569,0 -2,0.895431 -2,2 0,1.104569 0.895431,2 2,2 1.104569,0 2,-0.895431 2,-2 0,-1.104569 -0.895431,-2 -2,-2 z m -12,3 c -6.063288,0 -11,4.936712 -11,11 0,6.063288 4.936712,11 11,11 6.063288,0 11,-4.936712 11,-11 0,-6.063288 -4.936712,-11 -11,-11 z m 0,2.585937 c 4.982407,0 8.414062,3.431656 8.414062,8.414063 0,4.982407 -3.431655,8.414062 -8.414062,8.414062 -4.982407,0 -8.414063,-3.431655 -8.414063,-8.414062 0,-4.982407 3.431656,-8.414063 8.414063,-8.414063 z"
     id="path2"
     sodipodi:nodetypes="sssssssssssssssssssssssssssssssss" />
</svg>
