<?xml version="1.0" encoding="utf-8"?>
<!-- Svg Vector Icons : http://www.onlinewebfonts.com/icon -->
<!DOCTYPE svg PUBLIC "-//W3C//DTD SVG 1.1//EN" "http://www.w3.org/Graphics/SVG/1.1/DTD/svg11.dtd">
<svg version="1.1" xmlns="http://www.w3.org/2000/svg" xmlns:xlink="http://www.w3.org/1999/xlink" x="0px" y="0px" viewBox="0 0 1000 1000" enable-background="new 0 0 1000 1000" xml:space="preserve">
<metadata> Svg Vector Icons : http://www.onlinewebfonts.com/icon </metadata>
<g><g transform="translate(0.000000,512.000000) scale(0.100000,-0.100000)"><path d="M4534.6,5003.8c-1220.7-124.6-2328.4-680.3-3156.3-1582.9C188.3,2119.7-208.4,268.5,347.3-1414.1c243.4-741.6,636.2-1379.8,1190.1-1933.6c776.1-776.1,1728.6-1243.7,2863.1-1404.7c226.1-32.6,981.2-32.6,1207.3,0c939,134.2,1778.4,490.6,2472.1,1052.1c986.9,797.2,1609.8,1914.5,1795.6,3215.7c32.6,226.1,32.6,981.2,0,1207.3c-161,1134.5-628.6,2086.9-1404.7,2863.1C7712,4342.7,6782.5,4808.4,5694,4977C5454.5,5013.4,4779.9,5030.7,4534.6,5003.8z M5661.4,4670.4c1766.9-277.9,3177.4-1471.8,3719.7-3150.5c153.3-471.4,212.7-864.3,212.7-1400.9c0-414-21.1-613.2-97.7-977.4c-107.3-505.9-367.9-1121.1-655.4-1552.3C8091.4-3533.6,6930.1-4258,5579-4443.9c-235.7-34.5-914.1-34.5-1149.8,0c-1797.6,249.1-3252.1,1456.5-3802.1,3162C471.9-804.7,414.4-423.3,414.4,119c0,542.3,57.5,923.7,212.7,1400.9C1085.1,2936.1,2187,4038,3603.2,4496c322,105.4,590.2,157.1,1055.9,210.8C4802.9,4724,5483.2,4699.1,5661.4,4670.4z"/><path d="M3106.9,119c0-2004.5,5.7-2512.4,24.9-2504.7C3239.1-2341.7,7792.5,103.7,7792.5,119c0,15.3-4559.1,2464.5-4660.6,2504.7C3112.6,2631.4,3106.9,2123.5,3106.9,119z M5345.2,1096.3c992.7-530.8,1803.3-971.6,1801.4-981.2c-3.8-7.7-845.1-463.8-1870.4-1009.9l-1862.7-994.6V122.8V2135l63.2-38.3C3509.3,2075.6,4350.6,1625.3,5345.2,1096.3z"/></g></g>
</svg>